<svg xmlns="http://www.w3.org/2000/svg"
	xmlns:xlink="http://www.w3.org/1999/xlink" xml:space="preserve" width="48.5562mm" height="48.5562mm" style="shape-rendering:geometricPrecision; text-rendering:geometricPrecision; image-rendering:optimizeQuality; fill-rule:evenodd; clip-rule:evenodd" viewBox="0 0 2495 2495">
	<defs>
		<style type="text/css">
			.fil0 {
				fill: #FEFEFE
			}
		</style>
	</defs>
	<g id="Capa_x0020_1">
		<metadata id="CorelCorpID_0Corel-Layer"></metadata>
		<path class="fil0" d="M639 448c44,-6 716,-2 779,-2 139,0 221,-1 337,55 64,32 123,76 163,130 81,107 114,231 92,381 -26,173 -84,160 -42,212 15,18 28,34 41,57 114,193 90,442 -45,590 -164,180 -282,185 -595,185 -194,0 -389,0 -584,0 -156,0 -148,13 -147,-48 5,-383 0,-784 0,-1170 0,-124 -7,-268 1,-390zm549 -448l122 0c89,4 176,17 259,39 360,95 646,341 809,672 71,143 109,309 117,476l0 124c-4,89 -17,176 -39,258 -47,179 -135,350 -254,487 -124,141 -246,238 -418,322 -143,71 -308,109 -475,117l-125 0c-88,-4 -176,-17 -258,-39 -152,-40 -281,-102 -405,-190 -28,-20 -55,-41 -81,-64 -79,-69 -153,-145 -213,-231 -88,-127 -149,-251 -189,-406 -32,-125 -37,-187 -38,-283l0 -98c0,-227 101,-482 229,-663 20,-28 41,-55 64,-81 14,-16 19,-24 35,-39 67,-67 115,-118 196,-174 127,-88 251,-149 406,-189 82,-21 169,-34 258,-38zm-150 1726c58,5 338,1 419,1 72,0 129,10 186,-26 97,-61 100,-218 4,-282 -57,-38 -112,-28 -185,-27l-423 1 -1 333zm473 -653c173,-15 174,-286 5,-309l-477 2 0 306 472 1z"></path>
	</g>
</svg>