<svg xmlns="http://www.w3.org/2000/svg"
	xmlns:xlink="http://www.w3.org/1999/xlink" xml:space="preserve" width="59.0127mm" height="59.0359mm" style="shape-rendering:geometricPrecision; text-rendering:geometricPrecision; image-rendering:optimizeQuality; fill-rule:evenodd; clip-rule:evenodd" viewBox="0 0 1385 1385">
	<defs>
		<style type="text/css">
								.fil0 {
									fill: #FEFEFE
								}
		</style>
	</defs>
	<g id="Capa_x0020_1">
		<metadata id="CorelCorpID_0Corel-Layer"></metadata>
		<path class="fil0" d="M323 1055c17,-4 644,-1 692,-1 44,0 71,-4 70,45 0,36 9,83 -24,91 -18,4 -646,1 -695,1 -46,0 -70,4 -70,-46 0,-39 -9,-81 27,-90zm1062 -401l0 68c-1,49 -4,78 -23,153 -21,86 -72,181 -129,251 -13,17 -44,52 -59,66l-70 58c-8,6 -15,11 -24,17 -27,20 -80,47 -109,60 -446,198 -971,-129 -971,-635 0,-107 26,-205 59,-279 15,-34 26,-53 44,-84 24,-40 59,-84 90,-118 18,-19 25,-22 34,-32l69 -55c6,-4 8,-6 13,-9 5,-4 8,-5 14,-9 51,-34 128,-68 188,-83 104,-26 119,-23 220,-23 76,0 192,31 262,66 19,10 35,18 53,29 23,14 52,32 73,50 8,6 15,11 22,18l33 28c21,20 67,73 85,100 6,9 11,15 17,25 5,8 10,16 15,25 51,86 94,213 94,313zm-811 160c-2,-9 -9,-22 -13,-31 -14,-34 -22,-69 -27,-105 -7,-54 -5,-112 6,-164 35,-178 163,-275 257,-125 51,81 65,196 52,292 -7,55 -21,88 -39,133l72 0c46,-112 51,-254 12,-373 -3,-9 -16,-38 -15,-44 262,-48 419,265 248,444 -9,9 -20,18 -28,27 1,46 -2,78 -33,97 -25,14 -86,9 -120,9 -172,0 -343,0 -515,0 -36,0 -90,7 -117,-12 -32,-21 -31,-52 -29,-98 -16,-8 -41,-39 -53,-59 -126,-193 36,-448 274,-409 0,6 -13,36 -16,46 -29,90 -34,186 -16,279 5,26 11,49 20,74 9,26 0,19 80,19zm104 -711c88,-22 122,114 31,136 -86,21 -125,-112 -31,-136z"></path>
	</g>
</svg>