<svg xmlns="http://www.w3.org/2000/svg"
	xmlns:xlink="http://www.w3.org/1999/xlink" xml:space="preserve" width="33.812mm" height="33.5647mm" style="shape-rendering:geometricPrecision; text-rendering:geometricPrecision; image-rendering:optimizeQuality; fill-rule:evenodd; clip-rule:evenodd" viewBox="0 0 3837 3809">
	<defs>
		<style type="text/css">
								.fil0 {
									fill: white
								}
		</style>
	</defs>
	<g id="Capa_x0020_1">
		<metadata id="CorelCorpID_0Corel-Layer"></metadata>
		<g id="_2018591096368">
			<g>
				<path class="fil0" d="M216 1099c0,58 9,99 31,147 70,151 264,229 414,158 75,-36 125,-79 162,-155 129,-261 -130,-452 -235,-452 -108,0 -189,-5 -282,97 -43,47 -90,120 -90,205z"></path>
				<path class="fil0" d="M2981 2686c0,130 74,247 188,300 321,150 610,-261 362,-509 -22,-21 -60,-50 -91,-64 -127,-56 -257,-38 -353,55 -32,30 -50,50 -71,92 -11,24 -35,96 -35,126z"></path>
				<path class="fil0" d="M294 2222c83,0 84,5 174,-35 144,-65 224,-271 142,-421 -232,-422 -833,-18 -523,353 40,48 142,103 207,103z"></path>
				<path class="fil0" d="M216 2702c0,83 39,167 95,223 51,51 149,94 223,94 69,-1 144,-28 199,-71 119,-93 158,-245 93,-383 -51,-108 -181,-190 -291,-187 -36,1 -94,18 -124,31 -116,47 -195,165 -195,293z"></path>
				<path class="fil0" d="M2981 1115c0,116 77,228 188,284 155,78 346,4 421,-147 69,-139 27,-296 -88,-387 -16,-13 -28,-21 -47,-32 -93,-52 -218,-51 -312,3 -88,51 -162,164 -162,279z"></path>
				<path class="fil0" d="M2400 3275c0,137 72,238 181,291 171,83 353,-4 420,-139 117,-233 -78,-462 -245,-462 -76,0 -115,-5 -188,36 -98,55 -168,147 -168,274z"></path>
				<path class="fil0" d="M1602 271c0,85 -5,125 39,201 17,28 39,60 66,81 181,143 393,88 491,-81 10,-16 16,-31 22,-48 30,-90 26,-180 -22,-261 -147,-252 -497,-192 -578,48 -7,20 -18,42 -18,60z"></path>
				<path class="fil0" d="M1602 3445c0,79 -6,121 36,196 17,29 40,65 63,85 174,153 447,86 519,-128 31,-89 26,-179 -22,-261 -124,-214 -432,-214 -557,0 -13,23 -39,86 -39,108z"></path>
				<path class="fil0" d="M3197 1881c0,59 3,100 30,157 25,54 86,122 140,146 97,45 193,58 293,5 186,-101 239,-318 96,-495 -41,-51 -155,-107 -203,-107 -146,0 -249,45 -323,179 -12,21 -33,85 -33,115z"></path>
				<path class="fil0" d="M805 3267c0,98 19,162 86,232 1,1 2,2 4,4 1,1 2,2 4,3 37,36 49,43 97,66 78,38 175,34 252,-1 280,-128 237,-502 -19,-589 -218,-73 -424,86 -424,285z"></path>
				<path class="fil0" d="M2400 526c0,60 7,78 24,124 9,24 8,26 22,47 9,12 23,31 34,44 37,45 137,103 183,103 80,0 131,8 207,-33 81,-45 165,-150 165,-254 0,-112 -15,-180 -103,-261 -43,-40 -97,-68 -155,-77 -206,-36 -377,118 -377,307z"></path>
				<path class="fil0" d="M805 503c0,137 41,237 161,304 95,52 218,53 312,-1 274,-160 185,-562 -142,-595 -39,-4 -99,9 -129,22 -104,44 -202,151 -202,270z"></path>
			</g>
		</g>
	</g>
</svg>