<svg xmlns="http://www.w3.org/2000/svg" id="Capa_1" data-name="Capa 1" viewBox="0 0 283.46 283.46">
	<defs>
		<style>
			svg { background:var(--color); }
			.cls-1 {
				fill: #fff;
				fill-rule: evenodd;
			}
		</style>
	</defs>
	<path class="cls-1" d="M128.82,145.87c-9.1,2.22-17.37,4-23.21,9-5.11,4.38-8,14.93-4.65,23.84,6.63,17.39,30.83,20.39,39.7,6.62,9-13.92,5.63-39.37,5.72-58,.09-20.94.58-42.89-.08-63.9h26c1,11.11,5,19.86,11.08,25.9,8.66,8.57,13,9,25.54,11.14L208.65,124c0,.16-.13.72-.15.62s-.09.4-.17.6c-13.78,3.35-31.58-9.13-35.78-10,.85,14,.21,30.75.09,45-.4,49.33-40.5,70.11-70.56,55.69-33.9-16.27-37.33-66.33-7-86.25,7.25-4.77,22.74-11.58,34-9.76l-.19,26ZM130.3.57c-37.35,3-60.52,16.29-85.72,38-8.08,7-18.22,20.12-24.07,29.54C5.59,92.1-2.21,124,.38,153.63c6.48,73.9,70.34,136.08,153,129.46,74.58-6,136-71.63,129.48-152.91C277,56.43,212.26-5.91,130.3.57Z" transform="translate(0.11 -0.11)"></path>
</svg>